<svg xmlns="http://www.w3.org/2000/svg" viewBox="0 0 24 24" width="24" height="24" fill="none" role="img" aria-label="Galvanized Coil (Semi-Finished)">
<title>Galvanized Coil (Semi-Finished)</title>
<mask id="ci-galvanized-coil-semi-n" maskUnits="userSpaceOnUse" x="0" y="0" width="24" height="24"><rect width="24" height="24" fill="#fff"/><circle cx="19.1" cy="19.1" r="4.35" fill="#000"/></mask><g class="ci-accent ci-sparkle" fill="currentColor" opacity=".16"><g mask="url(#ci-galvanized-coil-semi-n)" transform="translate(.56 .56) scale(.87)"><ellipse cx="7.6" cy="12" rx="3.3" ry="6.1"/></g></g>
<g class="ci-stroke" stroke="currentColor" stroke-width="1.6" stroke-linecap="round" stroke-linejoin="round"><g mask="url(#ci-galvanized-coil-semi-n)" transform="translate(.56 .56) scale(.87)"><ellipse cx="7.6" cy="12" rx="3.3" ry="6.1"/><path d="M7.6 5.9h6.2a3.3 6.1 0 0 1 0 12.2H7.6"/><ellipse cx="7.6" cy="12" rx="1.35" ry="2.5"/><path d="M18.3 3.4C18.49343 4.85 19.75 6.10657 21.2 6.3C19.75 6.49343 18.49343 7.75 18.3 9.2C18.10657 7.75 16.85 6.49343 15.4 6.3C16.85 6.10657 18.10657 4.85 18.3 3.4z"/></g></g>
<g class="ci-badge"><g fill="currentColor" opacity=".8"><path d="M19.1 16.2a2.9 2.9 0 0 1 0 5.8z"/></g><g stroke="currentColor" stroke-width="1.25" fill="none" stroke-linejoin="round"><circle cx="19.1" cy="19.1" r="2.9"/></g></g></svg>
