<svg xmlns="http://www.w3.org/2000/svg" viewBox="0 0 24 24" width="24" height="24" fill="none" role="img" aria-label="RM-STARCODE">
<title>RM-STARCODE</title>
<mask id="ci-rm-starcode-a" maskUnits="userSpaceOnUse" x="0" y="0" width="24" height="24"><rect width="24" height="24" fill="#fff"/><circle cx="19.1" cy="19.1" r="4.35" fill="#000"/></mask><g class="ci-accent ci-sparkle" fill="currentColor" opacity=".30"><g mask="url(#ci-rm-starcode-a)" transform="translate(.56 .56) scale(.87)"><path d="M12 3.4 14 7.4l4.4.6-3.2 3.1.8 4.4-4-2.1-4 2.1.8-4.4-3.2-3.1 4.4-.6z"/></g></g>
<g class="ci-stroke" stroke="currentColor" stroke-width="1.75" stroke-linecap="round" stroke-linejoin="round"><g mask="url(#ci-rm-starcode-a)" transform="translate(.56 .56) scale(.87)"><path d="M12 3.4 14 7.4l4.4.6-3.2 3.1.8 4.4-4-2.1-4 2.1.8-4.4-3.2-3.1 4.4-.6z"/><path d="M6.8 18.6v2.8M9.6 18.6v2.8M12.4 18.6v2.8M15.2 18.6v2.8"/></g></g>
<g class="ci-badge"><g fill="currentColor" opacity=".92"></g><g stroke="currentColor" stroke-width="1.25" fill="none" stroke-linejoin="round"><circle cx="19.1" cy="19.1" r="2.9"/></g></g></svg>
